<svg xmlns="http://www.w3.org/2000/svg" width="1387.4" height="894.4" viewBox="0 0 1387.4 894.4"><title>header bg asset</title><g id="Layer_2" data-name="Layer 2"><g id="Layer_1-2" data-name="Layer 1"><circle cx="1202.4" cy="376" r="4" fill="#54d0cf"/><circle cx="1188.7" cy="489.7" r="1.7" fill="#54d0cf"/><circle cx="864.7" cy="885.7" r="1.7" fill="#fff" opacity="0.2" style="isolation:isolate"/><circle cx="1280.7" cy="194.7" r="1.7" fill="#fff" opacity="0.2" style="isolation:isolate"/><circle cx="270.7" cy="416.7" r="1.7" fill="#fff" opacity="0.2" style="isolation:isolate"/><circle cx="178.7" cy="541.7" r="1.7" fill="#fff" opacity="0.2" style="isolation:isolate"/><circle cx="272.7" cy="553.7" r="1.7" fill="#fff" opacity="0.2" style="isolation:isolate"/><circle cx="368.7" cy="525.7" r="1.7" fill="#fff" opacity="0.2" style="isolation:isolate"/><circle cx="480.7" cy="63.7" r="1.7" fill="#fff" opacity="0.2" style="isolation:isolate"/><circle cx="1154.7" cy="282.7" r="1.7" fill="#fff" opacity="0.2" style="isolation:isolate"/><circle cx="880.7" cy="182.7" r="1.7" fill="#fff" opacity="0.2" style="isolation:isolate"/><circle cx="1051.7" cy="669.7" r="1.7" fill="#fff" opacity="0.2" style="isolation:isolate"/><circle cx="74.7" cy="61.7" r="1.7" fill="#fff" opacity="0.2" style="isolation:isolate"/><circle cx="1229.7" cy="505.7" r="1.7" fill="#fff"/><circle cx="366.7" cy="361.7" r="1.7" fill="#fff"/><circle cx="1.7" cy="249.7" r="1.7" fill="#fff"/><circle cx="45.7" cy="594.7" r="1.7" fill="#fff"/><circle cx="166.7" cy="503.7" r="1.7" fill="#fff"/><circle cx="1215.7" cy="483.7" r="1.7" fill="#fff" opacity="0.2" style="isolation:isolate"/><circle cx="1385.7" cy="510.7" r="1.7" fill="#fff"/><circle cx="1352.7" cy="1.7" r="1.7" fill="#fff"/><circle cx="1146.7" cy="892.7" r="1.7" fill="#54d0cf"/><circle cx="956.7" cy="512.7" r="1.7" fill="#54d0cf"/><circle cx="302.7" cy="25.7" r="1.7" fill="#54d0cf"/><circle cx="164.7" cy="133.7" r="1.7" fill="#fff" opacity="0.2" style="isolation:isolate"/></g></g></svg>
