<?xml version="1.0" encoding="utf-8"?>
<!-- Generator: Adobe Illustrator 19.0.1, SVG Export Plug-In . SVG Version: 6.00 Build 0)  -->
<svg version="1.1" xmlns="http://www.w3.org/2000/svg" xmlns:xlink="http://www.w3.org/1999/xlink" x="0px" y="0px"
	 viewBox="0 0 1920 1005" style="enable-background:new 0 0 1920 1005;" xml:space="preserve">
<style type="text/css">
	.st0{enable-background:new    ;}
	.st1{opacity:3.000000e-02;}
	.st2{fill:#FFFFFF;}
</style>
<g id="Background">
</g>
<g id="Items">
	<g>
		<g class="st0">
		</g>
	</g>
	<g class="st1">
		<path class="st2" d="M1295.2,280.1c-27.3,47.8-88.7,64.5-136.4,37.3L765.6,92.9C717.8,65.6,701,4.2,728.3-43.5l224.5-393.2
			c27.3-47.8,88.7-64.5,136.4-37.3l393.2,224.5c47.8,27.3,64.5,88.7,37.3,136.4L1295.2,280.1z"/>
	</g>
	<g class="st1">
		<path class="st2" d="M362.1,907.2c-27.3,47.8-88.7,64.5-136.4,37.3L-167.5,720c-47.8-27.3-64.5-88.7-37.3-136.4L19.7,190.3
			c27.3-47.8,88.7-64.5,136.4-37.3l393.2,224.5c47.8,27.3,64.5,88.7,37.3,136.4L362.1,907.2z"/>
	</g>
	<g class="st1">
		<path class="st2" d="M1757.3,1352.5c-27.3,47.8-88.7,64.5-136.4,37.3l-393.2-224.5c-47.8-27.3-64.5-88.7-37.3-136.4l224.5-393.2
			c27.3-47.8,88.7-64.5,136.4-37.3l393.2,224.5c47.8,27.3,64.5,88.7,37.3,136.4L1757.3,1352.5z"/>
	</g>
</g>
</svg>
